<svg width="89.328125" height="86.000000" viewBox="0 0 89.3281 86" fill="none" xmlns="http://www.w3.org/2000/svg" xmlns:xlink="http://www.w3.org/1999/xlink">
	<desc>
			Created with Pixso.
	</desc>
	<defs/>
	<ellipse id="Ellipse" cx="44.664062" cy="43.000000" rx="44.663689" ry="43.000000" fill="#FFFFFF" fill-opacity="1.000000"/>
	<ellipse id="Ellipse" cx="44.664062" cy="43.000000" rx="43.663689" ry="42.000000" stroke="#80A2C5" stroke-opacity="1.000000" stroke-width="2.000000"/>
	<path id="Vector" d="M62.78 43.32C64.73 43.4 66.38 41.92 66.47 40C66.55 38.09 65.18 36.36 63.23 36.28L50.27 34.71C50.27 34.71 52.97 30.35 52.97 23.88C52.97 19.57 49.78 19 47.9 19C46.43 18.99 46.03 21.75 46.03 21.75L46.03 21.75C45.69 23.52 45.26 25.07 43.75 27.91C42.06 31.1 39.75 30.8 37.06 33.64C36.59 34.14 35.95 34.97 35.33 35.98C35.28 36.04 35.23 36.11 35.18 36.22C35.13 36.34 35.06 36.43 35 36.55C34.9 36.73 34.8 36.91 34.7 37.11C33.04 38.71 30.44 38.55 29.34 38.55C27.12 38.55 25.96 39.79 25.96 41.81L25.96 56.71C25.96 58.97 26.92 59.73 29.34 59.73L32.71 59.73C34.41 59.73 35.74 60.67 37.78 61.36C40.56 62.29 44.72 62.99 51.89 62.99C53.14 62.99 57.03 63 57.03 63C58.22 63 59.17 62.47 59.86 61.84C60.12 61.6 60.4 61.25 60.51 60.56C60.53 60.46 60.55 60.01 60.55 59.95C60.64 58 59.42 57.29 58.73 57.07C58.74 57.06 58.73 57.05 58.77 57.05L60.97 57.14C62.92 57.23 64.85 55.87 64.85 53.56C64.85 51.65 63.24 50.3 61.29 50.21L62.46 50.26C64.41 50.34 66.06 48.86 66.15 46.94C66.24 45.02 64.73 43.4 62.78 43.32Z" fill="#80A2C5" fill-opacity="1.000000" fill-rule="evenodd"/>
</svg>
