<svg width="89.328125" height="86.000000" viewBox="0 0 89.3281 86" fill="none" xmlns="http://www.w3.org/2000/svg" xmlns:xlink="http://www.w3.org/1999/xlink">
	<desc>
			Created with Pixso.
	</desc>
	<defs/>
	<ellipse id="Ellipse" cx="44.664062" cy="43.000000" rx="44.663689" ry="43.000000" fill="#FFFFFF" fill-opacity="1.000000"/>
	<ellipse id="Ellipse" cx="44.664062" cy="43.000000" rx="43.663689" ry="42.000000" stroke="#80A2C5" stroke-opacity="1.000000" stroke-width="2.000000"/>
	<path id="Vector" d="M47.9 21.49C47.7 21.19 47.64 20.98 47.64 20.98L47.73 20.9C47.73 20.9 47.92 20.97 48.24 21.1C48.4 21.16 48.58 21.23 48.8 21.32C49.01 21.39 49.24 21.48 49.49 21.54C49.61 21.57 49.74 21.61 49.86 21.62C49.93 21.63 49.99 21.65 50.05 21.66C50.12 21.66 50.18 21.67 50.25 21.67C50.5 21.71 50.74 21.68 50.99 21.67C51.11 21.62 51.25 21.61 51.37 21.56C51.49 21.49 51.65 21.45 51.76 21.36C51.82 21.32 51.88 21.28 51.94 21.24C52.01 21.21 52.08 21.18 52.16 21.1L52.61 20.73C52.62 20.73 52.58 20.77 52.6 20.75L52.6 20.75L52.61 20.74L52.63 20.73L52.66 20.7L52.72 20.65L52.83 20.55L53.06 20.34C53.2 20.2 53.38 20.09 53.52 19.95C53.66 19.81 53.85 19.73 54 19.59C54.16 19.47 54.35 19.37 54.53 19.26C54.91 19.08 55.36 18.95 55.76 19.01C55.86 19.02 55.96 19.03 56.05 19.05C56.14 19.08 56.23 19.11 56.32 19.14C56.49 19.19 56.64 19.27 56.79 19.35C57.07 19.51 57.3 19.7 57.48 19.88C57.66 20.06 57.8 20.23 57.89 20.38C58 20.53 58.05 20.66 58.09 20.75C58.13 20.85 58.15 20.9 58.15 20.9L58.05 20.98C58.05 20.98 57.85 20.91 57.53 20.79C57.38 20.73 57.19 20.65 56.98 20.57C56.77 20.49 56.55 20.4 56.31 20.32C56.19 20.28 56.07 20.23 55.94 20.2C55.88 20.19 55.82 20.16 55.75 20.15C55.69 20.13 55.63 20.12 55.56 20.1C55.31 20.02 55.04 19.94 54.71 19.9C54.56 19.92 54.38 19.92 54.22 19.98C54.07 20.06 53.9 20.11 53.78 20.24C53.65 20.37 53.51 20.48 53.43 20.65L53.3 20.89L53.25 21.01L53.22 21.07L53.2 21.1L53.2 21.11L53.19 21.12L53.19 21.13C53.2 21.11 53.17 21.15 53.17 21.15L52.93 21.68C52.85 21.84 52.66 22.03 52.51 22.2C52.36 22.39 52.16 22.49 51.97 22.63C51.78 22.76 51.55 22.84 51.33 22.93C50.88 23.06 50.41 23.08 50.01 22.98C49.8 22.93 49.62 22.88 49.45 22.79C49.28 22.72 49.13 22.63 48.99 22.55C48.71 22.37 48.49 22.18 48.31 21.99C48.13 21.81 48 21.64 47.9 21.49ZM67.51 51.21L67.51 62L20.77 62L20.77 51.21L23.95 51.21L23.95 39.09L32.92 32.99L32.92 39.09L41.9 32.99L41.9 39.09L50.87 32.99L50.87 44.97L53.96 44.97L55.65 23.78L60.78 23.78L62.25 44.97L65.7 44.97L65.7 51.21L67.51 51.21L67.51 51.21L67.51 51.21ZM35.42 46.55L28.37 46.55L28.37 52.85L35.42 52.85L35.42 46.55ZM47.58 46.55L40.52 46.55L40.52 52.85L47.58 52.85L47.58 46.55ZM59.88 46.55L52.83 46.55L52.83 52.85L59.88 52.85L59.88 46.55Z" fill="#80A2C5" fill-opacity="1.000000" fill-rule="nonzero"/>
</svg>
