<svg width="89.312500" height="89.120117" viewBox="0 0 89.3125 89.1201" fill="none" xmlns="http://www.w3.org/2000/svg" xmlns:xlink="http://www.w3.org/1999/xlink">
	<desc>
			Created with Pixso.
	</desc>
	<defs/>
	<path id="Subtract" d="M65.83 6.52C66.3 6.36 66.72 6.13 67.11 5.85C72.46 8.97 77.11 13.18 80.75 18.16C79.78 19.07 79.17 20.37 79.17 21.8C79.17 24.56 81.41 26.8 84.17 26.8C84.67 26.8 85.14 26.73 85.59 26.6C87.98 32.07 89.31 38.11 89.31 44.46C89.31 49.13 88.59 53.63 87.26 57.87C86.41 57.2 85.34 56.8 84.17 56.8C81.41 56.8 79.17 59.04 79.17 61.8C79.17 64.29 80.99 66.35 83.36 66.74C79.87 72.79 75 77.95 69.17 81.78C69.17 79.03 66.93 76.8 64.17 76.8C61.41 76.8 59.17 79.04 59.17 81.8C59.17 83.5 60.02 85 61.32 85.9C56.17 87.97 50.54 89.12 44.65 89.12C38.52 89.12 32.69 87.88 27.37 85.65C27.59 85.46 27.8 85.26 27.98 85.04C28.4 84.55 28.73 83.98 28.93 83.35C29.09 82.86 29.17 82.34 29.17 81.8C29.17 79.04 26.94 76.8 24.17 76.8C21.63 76.8 19.53 78.71 19.22 81.17C13.73 77.36 9.14 72.35 5.82 66.53C7.77 65.85 9.17 63.99 9.17 61.8C9.17 59.04 6.94 56.8 4.17 56.8C3.72 56.8 3.28 56.86 2.87 56.97C2.63 57.04 2.41 57.12 2.19 57.21C2.12 57.24 2.07 57.27 2 57.3L1.89 57.36C0.66 53.3 0 49 0 44.55C0.89 45.91 2.43 46.8 4.17 46.8C6.94 46.8 9.17 44.56 9.17 41.8C9.17 39.04 6.94 36.8 4.17 36.8C2.66 36.8 1.3 37.48 0.38 38.54C0.93 34.41 2.04 30.46 3.63 26.77C3.81 26.79 3.99 26.8 4.17 26.8C6.94 26.8 9.17 24.56 9.17 21.8C9.17 21.14 9.05 20.5 8.81 19.93C8.64 19.5 8.41 19.1 8.14 18.75C11.72 13.66 16.35 9.36 21.7 6.15C22.43 6.56 23.27 6.8 24.17 6.8C26.67 6.8 28.74 4.97 29.12 2.58C32.4 1.36 35.87 0.51 39.47 0.1C39.28 0.63 39.17 1.2 39.17 1.8C39.17 4.56 41.41 6.8 44.17 6.8C46.94 6.8 49.17 4.56 49.17 1.8C49.17 1.16 49.06 0.56 48.84 0C51.03 0.2 53.18 0.56 55.28 1.07C56.61 1.4 57.91 1.78 59.19 2.22C59.41 4.79 61.56 6.8 64.17 6.8C64.42 6.8 64.67 6.78 64.91 6.75C65.23 6.7 65.54 6.62 65.83 6.52ZM29.17 41.8C29.17 44.56 26.94 46.8 24.17 46.8C21.41 46.8 19.17 44.56 19.17 41.8C19.17 39.04 21.41 36.8 24.17 36.8C26.94 36.8 29.17 39.04 29.17 41.8ZM44.17 46.8C46.94 46.8 49.17 44.56 49.17 41.8C49.17 39.04 46.94 36.8 44.17 36.8C41.41 36.8 39.17 39.04 39.17 41.8C39.17 44.56 41.41 46.8 44.17 46.8ZM69.17 41.8C69.17 44.56 66.94 46.8 64.17 46.8C61.41 46.8 59.17 44.56 59.17 41.8C59.17 39.04 61.41 36.8 64.17 36.8C66.94 36.8 69.17 39.04 69.17 41.8ZM84.17 46.8C86.94 46.8 89.17 44.56 89.17 41.8C89.17 39.04 86.94 36.8 84.17 36.8C81.41 36.8 79.17 39.04 79.17 41.8C79.17 44.56 81.41 46.8 84.17 46.8ZM24.17 26.8C26.94 26.8 29.17 24.56 29.17 21.8C29.17 19.04 26.94 16.8 24.17 16.8C21.41 16.8 19.17 19.04 19.17 21.8C19.17 24.56 21.41 26.8 24.17 26.8ZM49.17 21.8C49.17 24.56 46.94 26.8 44.17 26.8C41.41 26.8 39.17 24.56 39.17 21.8C39.17 19.04 41.41 16.8 44.17 16.8C46.94 16.8 49.17 19.04 49.17 21.8ZM64.17 26.8C66.94 26.8 69.17 24.56 69.17 21.8C69.17 19.04 66.94 16.8 64.17 16.8C61.41 16.8 59.17 19.04 59.17 21.8C59.17 24.56 61.41 26.8 64.17 26.8ZM24.17 66.8C26.94 66.8 29.17 64.56 29.17 61.8C29.17 59.04 26.94 56.8 24.17 56.8C21.41 56.8 19.17 59.04 19.17 61.8C19.17 64.56 21.41 66.8 24.17 66.8ZM49.17 61.8C49.17 64.56 46.94 66.8 44.17 66.8C41.41 66.8 39.17 64.56 39.17 61.8C39.17 59.04 41.41 56.8 44.17 56.8C46.94 56.8 49.17 59.04 49.17 61.8ZM64.17 66.8C66.94 66.8 69.17 64.56 69.17 61.8C69.17 59.04 66.94 56.8 64.17 56.8C61.41 56.8 59.17 59.04 59.17 61.8C59.17 64.56 61.41 66.8 64.17 66.8ZM44.17 86.8C46.94 86.8 49.17 84.56 49.17 81.8C49.17 79.04 46.94 76.8 44.17 76.8C41.41 76.8 39.17 79.04 39.17 81.8C39.17 84.56 41.41 86.8 44.17 86.8Z" fill="#FF3333" fill-opacity="0.500000" fill-rule="evenodd"/>
</svg>
