<svg width="89.312500" height="89.313477" viewBox="0 0 89.3125 89.3135" fill="none" xmlns="http://www.w3.org/2000/svg" xmlns:xlink="http://www.w3.org/1999/xlink">
	<desc>
			Created with Pixso.
	</desc>
	<defs/>
	<path id="Subtract" d="M44.65 89.31C69.31 89.31 89.31 69.32 89.31 44.65C89.31 19.99 69.31 0 44.65 0C19.99 0 0 19.99 0 44.65C0 69.32 19.99 89.31 44.65 89.31ZM12.67 50C15.71 50 18.17 47.53 18.17 44.5C18.17 41.46 15.71 39 12.67 39C9.64 39 7.17 41.46 7.17 44.5C7.17 47.53 9.64 50 12.67 50ZM46.17 44.5C46.17 50.85 41.03 56 34.67 56C28.32 56 23.17 50.85 23.17 44.5C23.17 38.14 28.32 33 34.67 33C41.03 33 46.17 38.14 46.17 44.5ZM68.17 62C77.57 62 85.17 54.38 85.17 45C85.17 35.61 77.57 28 68.17 28C58.79 28 51.17 35.61 51.17 45C51.17 54.38 58.79 62 68.17 62Z" fill="#FF3333" fill-opacity="0.500000" fill-rule="evenodd"/>
</svg>
