<svg width="89.312500" height="89.313477" viewBox="0 0 89.3125 89.3135" fill="none" xmlns="http://www.w3.org/2000/svg" xmlns:xlink="http://www.w3.org/1999/xlink">
	<desc>
			Created with Pixso.
	</desc>
	<defs/>
	<path id="Subtract" d="M44.65 89.31C69.31 89.31 89.31 69.32 89.31 44.65C89.31 19.99 69.31 0 44.65 0C19.99 0 0 19.99 0 44.65C0 69.32 19.99 89.31 44.65 89.31ZM72.27 49.96L72.27 67.09L74.17 67.09L74.17 69L15.17 69L15.17 67.09L17.08 67.09L17.08 49.96L18.98 49.96L18.98 48.06L17.08 48.06L17.08 46.16L18.98 46.16L18.98 42.35L27.55 42.35C29.84 42.35 31.77 43.99 32.21 46.16L34.21 46.16L34.21 48.06L32.3 48.06L32.3 49.96L34.21 49.96L34.21 67.09L51.34 67.09L51.34 49.96L53.24 49.96L53.24 44.25L56.09 44.25L56.09 33.39C55.5 32.39 55.14 31.23 55.14 29.98C55.14 29.75 55.16 29.53 55.18 29.31L49.83 23.29C49.53 23.26 49.24 23.22 48.95 23.16L40.58 30.88C40.01 31.4 39.36 31.77 38.68 31.99C38.19 32.14 37.68 32.22 37.17 32.22C36.45 32.22 35.74 32.06 35.07 31.74C34.79 31.61 34.52 31.45 34.26 31.27L29.17 36.36L27.83 35.02L32.95 29.89C32.44 29.09 32.16 28.17 32.16 27.2C32.16 27.18 32.16 27.16 32.16 27.13C32.17 26.04 32.53 25.01 33.18 24.16C33.34 23.95 33.52 23.75 33.72 23.56L44.8 13.04C45.99 11.21 48.05 10 50.39 10C53.39 10 55.94 12 56.76 14.75L65.37 24.36C67.23 25.54 68.47 27.62 68.47 29.98C68.47 31.23 68.12 32.39 67.51 33.39L67.51 44.25L70.37 44.25L70.37 49.96L72.27 49.96ZM45.63 16.66C45.63 19.28 47.76 21.41 50.38 21.41L50.39 21.41C53.01 21.41 55.14 19.28 55.14 16.66C55.14 14.03 53.01 11.9 50.39 11.9C47.76 11.9 45.63 14.03 45.63 16.66ZM37.35 30.31C38.04 30.27 38.73 30 39.29 29.49L46.99 22.38C45.05 21.22 43.74 19.1 43.73 16.68L35.03 24.94C34.42 25.52 34.08 26.31 34.06 27.16C34.06 27.17 34.06 27.19 34.06 27.2C34.06 28.03 34.39 28.81 34.98 29.4C35.63 30.05 36.5 30.36 37.35 30.31ZM52.17 23.07L55.79 27.13C56.86 24.88 59.15 23.32 61.8 23.32L61.88 23.32L56.94 17.8C56.5 20.34 54.62 22.38 52.17 23.07ZM61.8 34.74C64.43 34.74 66.56 32.6 66.56 29.98C66.56 27.36 64.43 25.22 61.8 25.22C59.18 25.22 57.05 27.36 57.05 29.98C57.05 32.6 59.18 34.74 61.8 34.74ZM21.84 34.74L23.74 34.74L23.74 36.64L21.84 36.64L21.84 34.74ZM65.61 44.25L65.61 35.44C64.53 36.19 63.22 36.64 61.8 36.64C60.39 36.64 59.08 36.19 58 35.44L58 44.25L65.61 44.25ZM23.74 37.59L25.64 37.59L25.64 39.5L23.74 39.5L23.74 37.59ZM34.21 37.59L36.11 37.59L36.11 39.5L34.21 39.5L34.21 37.59ZM30.4 39.5L32.3 39.5L32.3 41.4L30.4 41.4L30.4 39.5ZM27.55 44.25L20.89 44.25L20.89 46.16L30.23 46.16C29.83 45.05 28.79 44.25 27.55 44.25ZM55.14 46.16L55.14 49.96L68.47 49.96L68.47 46.16L55.14 46.16ZM30.4 49.96L30.4 48.06L20.89 48.06L20.89 49.96L30.4 49.96ZM30.4 57.58L32.3 57.58L32.3 51.87L18.98 51.87L18.98 57.58L28.5 57.58L28.5 59.48L18.98 59.48L18.98 67.09L32.3 67.09L32.3 59.48L30.4 59.48L30.4 57.58ZM53.24 67.09L70.37 67.09L70.37 51.87L53.24 51.87L53.24 67.09ZM67.51 59.48C67.51 62.63 64.95 65.19 61.8 65.19C58.66 65.19 56.09 62.63 56.09 59.48C56.09 56.33 58.66 53.77 61.8 53.77C64.95 53.77 67.51 56.33 67.51 59.48ZM59.68 59.35L58.15 58.47C58.06 58.79 58 59.13 58 59.48C58 59.83 58.06 60.16 58.15 60.49L59.68 59.61L60.63 61.25L59.09 62.14C59.57 62.63 60.17 62.97 60.85 63.15L60.85 61.38L62.76 61.38L62.76 63.15C63.43 62.97 64.04 62.63 64.52 62.14L62.98 61.25L63.93 59.61L65.46 60.49C65.55 60.16 65.61 59.83 65.61 59.48C65.61 59.13 65.55 58.79 65.46 58.47L63.93 59.35L62.98 57.7L64.52 56.81C64.04 56.33 63.43 55.98 62.76 55.81L62.76 57.58L60.85 57.58L60.85 55.81C60.41 55.92 59.99 56.12 59.62 56.37L59.48 56.47C59.34 56.58 59.21 56.69 59.09 56.81L60.63 57.7L59.68 59.35Z" fill="#FF3333" fill-opacity="0.500000" fill-rule="evenodd"/>
</svg>
