<svg width="89.312500" height="89.313477" viewBox="0 0 89.3125 89.3135" fill="none" xmlns="http://www.w3.org/2000/svg" xmlns:xlink="http://www.w3.org/1999/xlink">
	<desc>
			Created with Pixso.
	</desc>
	<defs/>
	<path id="Subtract" d="M89.31 44.65C89.31 69.32 69.31 89.31 44.65 89.31C19.99 89.31 0 69.32 0 44.65C0 19.99 19.99 0 44.65 0C69.31 0 89.31 19.99 89.31 44.65ZM69.6 24.56C69.22 24.18 68.77 24 68.25 24L37.44 24C36.91 24 36.46 24.18 36.08 24.56C35.7 24.94 35.51 25.39 35.51 25.9L35.51 31.63L30.69 31.63C30.15 31.63 29.57 31.76 28.93 32.02C28.3 32.28 27.8 32.6 27.41 32.97L21.46 38.88C21.19 39.14 20.97 39.44 20.78 39.78C20.59 40.11 20.45 40.42 20.36 40.68C20.27 40.95 20.2 41.32 20.16 41.79C20.12 42.26 20.1 42.6 20.09 42.82Q20.07 43.15 20.09 43.95L20.09 44.43L20.1 45L20.1 54.54Q19.75 54.54 19.44 54.65Q19.43 54.66 19.42 54.66C19.18 54.75 18.95 54.9 18.75 55.11C18.37 55.49 18.17 55.93 18.17 56.45C18.17 56.75 18.22 57.01 18.3 57.24C18.38 57.47 18.51 57.65 18.7 57.79C18.89 57.93 19.06 58.05 19.2 58.14C19.34 58.22 19.58 58.28 19.91 58.31L20.58 58.37C20.7 58.38 20.96 58.38 21.35 58.37L22.03 58.36L23.95 58.36C23.95 60.47 24.71 62.27 26.21 63.76C27.71 65.25 29.53 66 31.66 66C33.78 66 35.6 65.25 37.1 63.76C38.61 62.27 39.36 60.47 39.36 58.36L50.92 58.36C50.92 60.47 51.67 62.27 53.17 63.76C54.68 65.25 56.49 66 58.62 66C60.75 66 62.56 65.25 64.07 63.76C65.57 62.27 66.32 60.47 66.32 58.36L67 58.37Q67.59 58.39 67.77 58.37L68.44 58.31C68.78 58.28 69.01 58.22 69.15 58.14C69.29 58.05 69.46 57.93 69.65 57.79C69.84 57.65 69.98 57.47 70.06 57.24C70.14 57.01 70.17 56.75 70.17 56.45L70.17 25.9C70.17 25.39 69.99 24.94 69.6 24.56ZM35.51 43.09L23.95 43.09L23.95 42.19C23.95 41.93 24.04 41.71 24.22 41.54L30.09 35.72C30.27 35.54 30.49 35.45 30.75 35.45L35.51 35.45L35.51 43.09ZM34.37 61.04C33.6 61.8 32.7 62.18 31.66 62.18C30.61 62.18 29.71 61.8 28.95 61.04C28.19 60.29 27.8 59.39 27.8 58.36C27.8 57.33 28.19 56.43 28.95 55.67C29.71 54.92 30.61 54.54 31.66 54.54C32.7 54.54 33.6 54.92 34.37 55.67C35.13 56.43 35.51 57.33 35.51 58.36C35.51 59.39 35.13 60.29 34.37 61.04ZM60.22 61.83C60.62 61.64 60.99 61.38 61.33 61.04C62.09 60.29 62.47 59.39 62.47 58.36C62.47 57.33 62.09 56.43 61.33 55.67C60.57 54.92 59.66 54.54 58.62 54.54C57.81 54.54 57.08 54.77 56.44 55.23Q56.17 55.42 55.91 55.67C55.15 56.43 54.77 57.33 54.77 58.36C54.77 59.39 55.15 60.29 55.91 61.04C56.67 61.8 57.58 62.18 58.62 62.18C59.2 62.18 59.73 62.06 60.22 61.83Z" fill="#FF3333" fill-opacity="0.500000" fill-rule="evenodd"/>
</svg>
