<svg width="89.312500" height="89.313477" viewBox="0 0 89.3125 89.3135" fill="none" xmlns="http://www.w3.org/2000/svg" xmlns:xlink="http://www.w3.org/1999/xlink">
	<desc>
			Created with Pixso.
	</desc>
	<defs/>
	<path id="Subtract" d="M89.31 44.65C89.31 69.32 69.31 89.31 44.65 89.31C19.99 89.31 0 69.32 0 44.65C0 19.99 19.99 0 44.65 0C69.31 0 89.31 19.99 89.31 44.65ZM72.08 27L16.28 27C14.57 27 13.17 28.34 13.17 30L13.17 60C13.17 61.65 14.57 63 16.28 63L72.08 63C73.79 63 75.17 61.65 75.17 60L75.17 30C75.17 28.34 73.79 27 72.08 27ZM64.33 58.5C64.33 55.18 67.1 52.5 70.53 52.5L70.53 37.5C67.1 37.5 64.33 34.81 64.33 31.5L24.03 31.5C24.03 34.81 21.25 37.5 17.83 37.5L17.83 52.5C21.25 52.5 24.03 55.18 24.03 58.5L64.33 58.5ZM34.88 45C34.88 39.2 39.04 34.5 44.17 34.5C49.31 34.5 53.48 39.2 53.48 45C53.48 50.8 49.31 55.5 44.17 55.5C39.04 55.5 34.88 50.79 34.88 45ZM47.28 51C47.7 51 48.05 50.66 48.05 50.25L48.05 48.75C48.05 48.33 47.7 48 47.28 48L45.73 48L45.73 39.75C45.73 39.33 45.38 39 44.95 39L43.64 39C43.18 39 42.73 39.13 42.35 39.37L40.86 40.33C40.78 40.39 40.7 40.46 40.65 40.54C40.59 40.62 40.55 40.71 40.53 40.81C40.51 40.9 40.51 41 40.53 41.1C40.55 41.2 40.59 41.29 40.65 41.37L41.51 42.62C41.56 42.7 41.64 42.77 41.72 42.83C41.8 42.88 41.9 42.92 42 42.94C42.1 42.96 42.2 42.96 42.3 42.94C42.4 42.92 42.5 42.88 42.58 42.83L42.63 42.8L42.63 48L41.08 48C40.83 48 40.6 48.11 40.46 48.29C40.36 48.41 40.3 48.57 40.3 48.75L40.3 50.25C40.3 50.66 40.65 51 41.08 51L47.28 51Z" fill="#FF3333" fill-opacity="0.500000" fill-rule="evenodd"/>
</svg>
