<svg width="214.000000" height="214.000000" viewBox="0 0 214 214" fill="none" xmlns="http://www.w3.org/2000/svg" xmlns:xlink="http://www.w3.org/1999/xlink">
	<desc>
			Created with Pixso.
	</desc>
	<defs/>
	<path id="Subtract" d="M108.46 0C112.08 0.04 115.66 0.27 119.18 0.67C119.53 5.08 123.22 8.55 127.72 8.55C131.09 8.55 134 6.61 135.4 3.78C150.28 7.86 163.87 15.08 175.41 24.67C175.03 25.64 174.82 26.7 174.82 27.81C174.82 32.53 178.65 36.37 183.38 36.37C184.6 36.37 185.76 36.11 186.81 35.65C196.89 46.92 204.62 60.33 209.23 75.12C205.46 76.01 202.65 79.4 202.65 83.45C202.65 88.18 206.48 92.01 211.21 92.01C211.82 92.01 212.42 91.95 213 91.82C213.11 92.63 213.21 93.44 213.31 94.25L213.35 94.61L213.41 95.11C213.48 95.72 213.54 96.33 213.6 96.94C213.79 99 213.92 101.08 214 103.17C213.46 102.99 212.91 102.86 212.34 102.78C212.17 102.76 212.01 102.75 211.85 102.73C211.76 102.73 211.67 102.72 211.58 102.72C211.46 102.71 211.33 102.71 211.21 102.71C206.48 102.71 202.65 106.54 202.65 111.27C202.65 116 206.48 119.83 211.21 119.83C211.37 119.83 211.54 119.83 211.7 119.82C211.78 119.81 211.85 119.81 211.92 119.8C212 119.8 212.08 119.79 212.16 119.78C212.36 119.76 212.57 119.73 212.78 119.69C212.96 119.65 213.15 119.61 213.33 119.57C212.9 123.28 212.27 126.94 211.46 130.53C211.38 130.53 211.29 130.53 211.21 130.53C206.48 130.53 202.65 134.36 202.65 139.09C202.65 142.13 204.22 144.79 206.6 146.31C198.11 167.78 182.88 185.85 163.51 197.9C163.9 196.92 164.11 195.85 164.11 194.73C164.11 190.01 160.28 186.17 155.55 186.17C150.82 186.17 146.99 190.01 146.99 194.73C146.99 198.94 150.02 202.44 154.02 203.16C139.84 210.1 123.89 214 107.03 214C86.83 214 67.95 208.4 51.83 198.69C52.45 197.51 52.8 196.16 52.8 194.73C52.8 190.01 48.96 186.17 44.24 186.17C41.8 186.17 39.61 187.19 38.05 188.81C32.37 184.03 27.2 178.66 22.62 172.8C24.08 171.27 24.97 169.19 24.97 166.91C24.97 162.19 21.14 158.35 16.41 158.35C15.35 158.35 14.34 158.54 13.41 158.89C4.86 143.52 0 125.82 0 106.99C0 90.71 3.63 75.28 10.14 61.46C11.7 63.14 13.93 64.19 16.41 64.19C21.14 64.19 24.97 60.36 24.97 55.63C24.97 51.52 22.07 48.09 18.21 47.26C23.19 39.87 29.07 33.14 35.69 27.22L35.68 27.44L35.67 27.64L35.67 27.81C35.67 32.53 39.51 36.37 44.24 36.37C48.96 36.37 52.8 32.53 52.8 27.81C52.8 23.54 49.68 20.01 45.6 19.35C52.45 14.55 59.89 10.52 67.79 7.41C68.66 7.91 69.62 8.26 70.65 8.43C71.11 8.51 71.58 8.55 72.06 8.55C75.56 8.55 78.56 6.45 79.9 3.45C83.66 2.47 87.5 1.69 91.4 1.12C91.96 5.31 95.55 8.55 99.89 8.55C104.62 8.55 108.45 4.72 108.46 0ZM80.63 27.81C80.63 32.53 76.79 36.37 72.06 36.37C67.33 36.37 63.5 32.53 63.5 27.81C63.5 23.08 67.33 19.25 72.06 19.25C76.79 19.25 80.63 23.08 80.63 27.81ZM99.89 36.37C104.62 36.37 108.46 32.53 108.46 27.81C108.46 23.08 104.62 19.25 99.89 19.25C95.16 19.25 91.33 23.08 91.33 27.81C91.33 32.53 95.16 36.37 99.89 36.37ZM136.28 27.81C136.28 32.53 132.45 36.37 127.72 36.37C122.99 36.37 119.16 32.53 119.16 27.81C119.16 23.08 122.99 19.25 127.72 19.25C132.45 19.25 136.28 23.08 136.28 27.81ZM155.55 36.37C160.28 36.37 164.11 32.53 164.11 27.81C164.11 23.08 160.28 19.25 155.55 19.25C150.82 19.25 146.99 23.08 146.99 27.81C146.99 32.53 150.82 36.37 155.55 36.37ZM44.24 64.19C48.96 64.19 52.8 60.36 52.8 55.63C52.8 50.9 48.96 47.07 44.24 47.07C39.51 47.07 35.67 50.9 35.67 55.63C35.67 60.36 39.51 64.19 44.24 64.19ZM80.63 55.63C80.63 60.36 76.79 64.19 72.06 64.19C67.33 64.19 63.5 60.36 63.5 55.63C63.5 50.9 67.33 47.07 72.06 47.07C76.79 47.07 80.63 50.9 80.63 55.63ZM99.89 64.19C104.62 64.19 108.46 60.36 108.46 55.63C108.46 50.9 104.62 47.07 99.89 47.07C95.16 47.07 91.33 50.9 91.33 55.63C91.33 60.36 95.16 64.19 99.89 64.19ZM136.28 55.63C136.28 60.36 132.45 64.19 127.72 64.19C122.99 64.19 119.16 60.36 119.16 55.63C119.16 50.9 122.99 47.07 127.72 47.07C132.45 47.07 136.28 50.9 136.28 55.63ZM155.55 64.19C160.28 64.19 164.11 60.36 164.11 55.63C164.11 50.9 160.28 47.07 155.55 47.07C150.82 47.07 146.99 50.9 146.99 55.63C146.99 60.36 150.82 64.19 155.55 64.19ZM191.94 55.63C191.94 60.36 188.11 64.19 183.38 64.19C178.65 64.19 174.82 60.36 174.82 55.63C174.82 50.9 178.65 47.07 183.38 47.07C188.11 47.07 191.94 50.9 191.94 55.63ZM24.97 83.45C24.97 88.18 21.14 92.01 16.41 92.01C11.68 92.01 7.84 88.18 7.84 83.45C7.84 78.72 11.68 74.89 16.41 74.89C21.14 74.89 24.97 78.72 24.97 83.45ZM44.24 92.01C48.96 92.01 52.8 88.18 52.8 83.45C52.8 78.72 48.96 74.89 44.24 74.89C39.51 74.89 35.67 78.72 35.67 83.45C35.67 88.18 39.51 92.01 44.24 92.01ZM80.63 83.45C80.63 88.18 76.79 92.01 72.06 92.01C67.33 92.01 63.5 88.18 63.5 83.45C63.5 78.72 67.33 74.89 72.06 74.89C76.79 74.89 80.63 78.72 80.63 83.45ZM99.89 92.01C104.62 92.01 108.46 88.18 108.46 83.45C108.46 78.72 104.62 74.89 99.89 74.89C95.16 74.89 91.33 78.72 91.33 83.45C91.33 88.18 95.16 92.01 99.89 92.01ZM136.28 83.45C136.28 88.18 132.45 92.01 127.72 92.01C122.99 92.01 119.16 88.18 119.16 83.45C119.16 78.72 122.99 74.89 127.72 74.89C132.45 74.89 136.28 78.72 136.28 83.45ZM155.55 92.01C160.28 92.01 164.11 88.18 164.11 83.45C164.11 78.72 160.28 74.89 155.55 74.89C150.82 74.89 146.99 78.72 146.99 83.45C146.99 88.18 150.82 92.01 155.55 92.01ZM191.94 83.45C191.94 88.18 188.11 92.01 183.38 92.01C178.65 92.01 174.82 88.18 174.82 83.45C174.82 78.72 178.65 74.89 183.38 74.89C188.11 74.89 191.94 78.72 191.94 83.45ZM24.97 111.27C24.97 116 21.14 119.83 16.41 119.83C11.68 119.83 7.84 116 7.84 111.27C7.84 106.54 11.68 102.71 16.41 102.71C21.14 102.71 24.97 106.54 24.97 111.27ZM44.24 119.83C48.96 119.83 52.8 116 52.8 111.27C52.8 106.54 48.96 102.71 44.24 102.71C39.51 102.71 35.67 106.54 35.67 111.27C35.67 116 39.51 119.83 44.24 119.83ZM80.63 111.27C80.63 116 76.79 119.83 72.06 119.83C67.33 119.83 63.5 116 63.5 111.27C63.5 106.54 67.33 102.71 72.06 102.71C76.79 102.71 80.63 106.54 80.63 111.27ZM99.89 119.83C104.62 119.83 108.46 116 108.46 111.27C108.46 106.54 104.62 102.71 99.89 102.71C95.16 102.71 91.33 106.54 91.33 111.27C91.33 116 95.16 119.83 99.89 119.83ZM136.28 111.27C136.28 116 132.45 119.83 127.72 119.83C122.99 119.83 119.16 116 119.16 111.27C119.16 106.54 122.99 102.71 127.72 102.71C132.45 102.71 136.28 106.54 136.28 111.27ZM155.55 119.83C160.28 119.83 164.11 116 164.11 111.27C164.11 106.54 160.28 102.71 155.55 102.71C150.82 102.71 146.99 106.54 146.99 111.27C146.99 116 150.82 119.83 155.55 119.83ZM191.94 111.27C191.94 116 188.11 119.83 183.38 119.83C178.65 119.83 174.82 116 174.82 111.27C174.82 106.54 178.65 102.71 183.38 102.71C188.11 102.71 191.94 106.54 191.94 111.27ZM24.97 139.09C24.97 143.82 21.14 147.65 16.41 147.65C11.68 147.65 7.84 143.82 7.84 139.09C7.84 134.36 11.68 130.53 16.41 130.53C21.14 130.53 24.97 134.36 24.97 139.09ZM44.24 147.65C48.96 147.65 52.8 143.82 52.8 139.09C52.8 134.36 48.96 130.53 44.24 130.53C39.51 130.53 35.67 134.36 35.67 139.09C35.67 143.82 39.51 147.65 44.24 147.65ZM80.63 139.09C80.63 143.82 76.79 147.65 72.06 147.65C67.33 147.65 63.5 143.82 63.5 139.09C63.5 134.36 67.33 130.53 72.06 130.53C76.79 130.53 80.63 134.36 80.63 139.09ZM99.89 147.65C104.62 147.65 108.46 143.82 108.46 139.09C108.46 134.36 104.62 130.53 99.89 130.53C95.16 130.53 91.33 134.36 91.33 139.09C91.33 143.82 95.16 147.65 99.89 147.65ZM136.28 139.09C136.28 143.82 132.45 147.65 127.72 147.65C122.99 147.65 119.16 143.82 119.16 139.09C119.16 134.36 122.99 130.53 127.72 130.53C132.45 130.53 136.28 134.36 136.28 139.09ZM155.55 147.65C160.28 147.65 164.11 143.82 164.11 139.09C164.11 134.36 160.28 130.53 155.55 130.53C150.82 130.53 146.99 134.36 146.99 139.09C146.99 143.82 150.82 147.65 155.55 147.65ZM191.94 139.09C191.94 143.82 188.11 147.65 183.38 147.65C178.65 147.65 174.82 143.82 174.82 139.09C174.82 134.36 178.65 130.53 183.38 130.53C188.11 130.53 191.94 134.36 191.94 139.09ZM44.24 175.47C48.96 175.47 52.8 171.64 52.8 166.91C52.8 162.19 48.96 158.35 44.24 158.35C39.51 158.35 35.67 162.19 35.67 166.91C35.67 171.64 39.51 175.47 44.24 175.47ZM80.63 166.91C80.63 171.64 76.79 175.47 72.06 175.47C67.33 175.47 63.5 171.64 63.5 166.91C63.5 162.19 67.33 158.35 72.06 158.35C76.79 158.35 80.63 162.19 80.63 166.91ZM99.89 175.47C104.62 175.47 108.46 171.64 108.46 166.91C108.46 162.19 104.62 158.35 99.89 158.35C95.16 158.35 91.33 162.19 91.33 166.91C91.33 171.64 95.16 175.47 99.89 175.47ZM136.28 166.91C136.28 171.64 132.45 175.47 127.72 175.47C122.99 175.47 119.16 171.64 119.16 166.91C119.16 162.19 122.99 158.35 127.72 158.35C132.45 158.35 136.28 162.19 136.28 166.91ZM155.55 175.47C160.28 175.47 164.11 171.64 164.11 166.91C164.11 162.19 160.28 158.35 155.55 158.35C150.82 158.35 146.99 162.19 146.99 166.91C146.99 171.64 150.82 175.47 155.55 175.47ZM191.94 166.91C191.94 171.64 188.11 175.47 183.38 175.47C178.65 175.47 174.82 171.64 174.82 166.91C174.82 162.19 178.65 158.35 183.38 158.35C188.11 158.35 191.94 162.19 191.94 166.91ZM80.63 194.73C80.63 199.46 76.79 203.3 72.06 203.3C67.33 203.3 63.5 199.46 63.5 194.73C63.5 190.01 67.33 186.17 72.06 186.17C76.79 186.17 80.63 190.01 80.63 194.73ZM99.89 203.3C104.62 203.3 108.46 199.46 108.46 194.73C108.46 190.01 104.62 186.17 99.89 186.17C95.16 186.17 91.33 190.01 91.33 194.73C91.33 199.46 95.16 203.3 99.89 203.3ZM136.28 194.73C136.28 199.46 132.45 203.3 127.72 203.3C122.99 203.3 119.16 199.46 119.16 194.73C119.16 190.01 122.99 186.17 127.72 186.17C132.45 186.17 136.28 190.01 136.28 194.73Z" fill="#C4C4C4" fill-opacity="1.000000" fill-rule="evenodd"/>
</svg>
