<svg width="89.312500" height="89.313477" viewBox="0 0 89.3125 89.3135" fill="none" xmlns="http://www.w3.org/2000/svg" xmlns:xlink="http://www.w3.org/1999/xlink">
	<desc>
			Created with Pixso.
	</desc>
	<defs/>
	<path id="Subtract" d="M89.31 44.65C89.31 69.32 69.31 89.31 44.65 89.31C19.99 89.31 0 69.32 0 44.65C0 19.99 19.99 0 44.65 0C69.31 0 89.31 19.99 89.31 44.65ZM70.17 42.45C70.17 44.28 69.58 45.87 68.39 47.21C68.71 48.14 68.88 48.95 68.87 49.63C68.94 51.25 68.47 52.71 67.48 54Q67.62 54.45 67.68 54.92Q67.71 55.05 67.72 55.19C67.75 55.49 67.76 55.79 67.75 56.1C67.73 56.63 67.63 57.18 67.48 57.73C67.33 58.27 67.14 58.76 66.9 59.21C66.59 59.78 66.2 60.29 65.72 60.73C65.92 63.11 65.39 65.04 64.13 66.51C62.74 68.12 60.61 68.95 57.73 69L53.53 69C53.18 69 52.82 68.99 52.45 68.96C52.17 68.95 51.89 68.93 51.6 68.9C50.73 68.82 49.81 68.69 48.85 68.5C47.82 68.3 46.91 68.1 46.16 67.91Q45.45 67.74 44.91 67.58C44.44 67.43 43.89 67.26 43.25 67.05C42.59 66.84 41.83 66.59 40.99 66.32C39.66 65.86 38.56 65.51 37.7 65.28C36.85 65.04 36.23 64.92 35.85 64.91C35.29 64.89 34.8 64.68 34.39 64.29Q34.06 63.97 33.91 63.58Q33.9 63.57 33.9 63.57C33.87 63.49 33.85 63.42 33.83 63.35C33.81 63.25 33.79 63.15 33.78 63.05C33.78 62.99 33.78 62.93 33.78 62.87L33.78 42.42C33.78 41.89 33.97 41.43 34.36 41.03Q34.68 40.71 35.07 40.55Q35.39 40.41 35.76 40.38C36.28 40.34 37.1 39.71 38.23 38.5C39.35 37.29 40.45 36 41.51 34.64C42.1 33.89 42.64 33.24 43.11 32.68Q43.64 32.04 44.07 31.57C44.34 31.27 44.58 31.01 44.79 30.81C45.18 30.43 45.52 29.92 45.8 29.28Q46.22 28.32 46.37 27.73C46.47 27.34 46.61 26.69 46.81 25.8C46.96 24.97 47.09 24.32 47.21 23.86C47.24 23.76 47.27 23.66 47.3 23.56Q47.34 23.43 47.39 23.3C47.42 23.21 47.45 23.11 47.49 23.02C47.55 22.86 47.62 22.7 47.7 22.53L47.85 22.2C48 21.87 48.17 21.58 48.36 21.31C48.54 21.04 48.74 20.81 48.95 20.6C49.08 20.48 49.21 20.38 49.34 20.29C49.45 20.23 49.57 20.17 49.69 20.12C49.92 20.04 50.16 20 50.42 20C51.41 20 52.31 20.11 53.1 20.33C53.89 20.55 54.54 20.83 55.05 21.16C55.32 21.34 55.58 21.54 55.81 21.78C55.87 21.84 55.92 21.9 55.98 21.97C56.11 22.12 56.23 22.28 56.35 22.45C56.71 22.98 56.97 23.46 57.13 23.89Q57.22 24.13 57.3 24.42C57.39 24.74 57.46 25.09 57.52 25.48C57.62 26.12 57.67 26.6 57.68 26.92C57.69 27.24 57.7 27.65 57.7 28.16C57.7 28.97 57.59 29.78 57.39 30.59C57.18 31.39 56.98 32.03 56.77 32.5C56.57 32.97 56.27 33.56 55.88 34.29Q55.82 34.41 55.7 34.61L55.55 34.86C55.49 34.97 55.43 35.08 55.37 35.18C55.3 35.31 55.25 35.44 55.19 35.56C55.11 35.78 55.02 36.03 54.94 36.33L63.94 36.33C64.07 36.33 64.19 36.33 64.32 36.34C64.55 36.35 64.78 36.38 65 36.41C65.37 36.47 65.72 36.57 66.07 36.69Q66.09 36.7 66.11 36.71Q67.32 37.16 68.33 38.15C69.56 39.36 70.17 40.79 70.17 42.45ZM20.26 40.41L29.62 40.41C29.74 40.41 29.85 40.42 29.96 40.44C30.14 40.47 30.31 40.52 30.47 40.59C30.53 40.62 30.59 40.65 30.65 40.69C30.72 40.73 30.79 40.77 30.85 40.82C30.93 40.88 31.01 40.95 31.08 41.02C31.21 41.14 31.31 41.27 31.4 41.41C31.42 41.45 31.45 41.5 31.48 41.54C31.62 41.82 31.69 42.12 31.69 42.45L31.69 62.87C31.69 63.42 31.49 63.9 31.08 64.31C30.67 64.71 30.18 64.91 29.62 64.91L20.26 64.91C19.69 64.91 19.21 64.71 18.79 64.31C18.38 63.9 18.17 63.42 18.17 62.87L18.17 42.45C18.17 41.9 18.38 41.42 18.79 41.02C19.21 40.61 19.69 40.41 20.26 40.41ZM24.42 60.83C24.64 60.83 24.85 60.8 25.04 60.74C25.35 60.64 25.63 60.48 25.88 60.24C26.29 59.84 26.5 59.36 26.5 58.79C26.5 58.4 26.39 58.04 26.19 57.72C26.1 57.59 26 57.47 25.88 57.35Q25.69 57.17 25.49 57.04Q25.32 56.94 25.14 56.87L25.14 56.87Q24.8 56.75 24.42 56.75C23.83 56.75 23.34 56.95 22.94 57.35C22.54 57.76 22.33 58.23 22.33 58.79C22.33 59.36 22.54 59.84 22.94 60.24C23.06 60.36 23.18 60.46 23.32 60.54Q23.39 60.58 23.46 60.61Q23.51 60.64 23.57 60.66Q23.64 60.7 23.72 60.72Q23.73 60.72 23.74 60.73C23.79 60.75 23.85 60.76 23.9 60.77C23.99 60.79 24.07 60.81 24.16 60.82C24.24 60.82 24.33 60.83 24.42 60.83Z" fill="#FF3333" fill-opacity="0.500000" fill-rule="evenodd"/>
</svg>
