<svg width="89.328125" height="86.000000" viewBox="0 0 89.3281 86" fill="none" xmlns="http://www.w3.org/2000/svg" xmlns:xlink="http://www.w3.org/1999/xlink">
	<desc>
			Created with Pixso.
	</desc>
	<defs/>
	<ellipse id="Ellipse" cx="44.664062" cy="43.000000" rx="44.663689" ry="43.000000" fill="#FFFFFF" fill-opacity="1.000000"/>
	<ellipse id="Ellipse" cx="44.664062" cy="43.000000" rx="43.663689" ry="42.000000" stroke="#80A2C5" stroke-opacity="1.000000" stroke-width="2.000000"/>
	<path id="Vector" d="M46.38 57.77C46.38 59.55 44.84 60.99 42.95 60.99C41.05 60.99 39.51 59.55 39.51 57.77C39.51 55.99 41.05 54.54 42.95 54.54C44.84 54.54 46.38 55.99 46.38 57.77Z" fill="#80A2C5" fill-opacity="1.000000" fill-rule="evenodd"/>
	<path id="Vector" d="M30.23 57.77C30.23 59.55 28.69 60.99 26.79 60.99C24.9 60.99 23.36 59.55 23.36 57.77C23.36 55.99 24.9 54.54 26.79 54.54C28.69 54.54 30.23 55.99 30.23 57.77Z" fill="#80A2C5" fill-opacity="1.000000" fill-rule="evenodd"/>
	<path id="Vector" d="M71.21 57.99L57.35 57.99C56.53 57.99 55.86 57.36 55.86 56.58L55.86 26.4C55.86 25.62 56.53 25 57.35 25C58.18 25 58.85 25.62 58.85 26.4L58.85 55.18L71.21 55.18C72.03 55.18 72.7 55.8 72.7 56.58C72.7 57.36 72.03 57.99 71.21 57.99Z" fill="#80A2C5" fill-opacity="1.000000" fill-rule="nonzero"/>
	<path id="Vector" d="M51.72 45.88C48.62 41.13 40.49 28.4 40.41 28.27C40 27.62 39.24 27.21 38.43 27.21L25.26 27.21C23.99 27.21 22.95 28.18 22.95 29.38L22.95 41.31L19.25 41.31C18.37 41.31 17.65 41.99 17.65 42.81L17.65 56.64C17.65 57.46 18.37 58.14 19.25 58.14L20.91 58.14C21.13 58.14 21.31 57.97 21.31 57.77C21.31 54.92 23.77 52.61 26.79 52.61C29.82 52.61 32.28 54.92 32.28 57.77C32.28 57.87 32.32 57.96 32.39 58.03C32.47 58.1 32.57 58.14 32.67 58.14L37.07 58.14C37.28 58.14 37.46 57.97 37.46 57.77C37.46 54.92 39.92 52.61 42.94 52.61C45.97 52.61 48.43 54.92 48.43 57.77C48.43 57.97 48.61 58.14 48.82 58.14L50.02 58.14C51.16 58.14 52.08 57.26 52.08 56.19L52.08 46.86C52.08 46.48 51.9 46.16 51.72 45.88ZM38.63 45.86L38.63 43.84C38.63 43.5 38.33 43.22 37.96 43.22L34.18 43.22L34.18 37.28C34.18 36.93 33.88 36.65 33.51 36.65L31.4 36.65C31.03 36.65 30.74 36.93 30.74 37.28L30.74 45.86L27.57 45.86L27.57 31.55L37.12 31.55L46.22 45.86L38.63 45.86L38.63 45.86Z" fill="#80A2C5" fill-opacity="1.000000" fill-rule="nonzero"/>
	<path id="Vector" d="M72.7 52.3C72.7 52.67 72.38 52.97 71.99 52.97L61.8 52.97C61.41 52.97 61.09 52.67 61.09 52.3L61.09 42.72C61.09 42.35 61.41 42.05 61.8 42.05L71.99 42.05C72.38 42.05 72.7 42.35 72.7 42.72L72.7 52.3Z" fill="#80A2C5" fill-opacity="1.000000" fill-rule="nonzero"/>
	<path id="Vector" d="M72.7 38.64C72.7 39.01 72.38 39.31 71.99 39.31L61.8 39.31C61.41 39.31 61.09 39.01 61.09 38.64L61.09 29.06C61.09 28.69 61.41 28.39 61.8 28.39L71.99 28.39C72.38 28.39 72.7 28.69 72.7 29.06L72.7 38.64Z" fill="#80A2C5" fill-opacity="1.000000" fill-rule="nonzero"/>
</svg>
